<svg width="402" height="220" viewBox="0 0 402 220" fill="none" xmlns="http://www.w3.org/2000/svg">
<path d="M1.5 143L66.5 78.3368M98 47L66.5 78.3368M66.5 78.3368V143L128 219M18 132L79.5 219M402.5 11.5H269L200 68.5M254.5 56L269 83.5H357V166.5M357 166.5L402.5 200M357 166.5L330.5 200M321.5 119L234.5 183.5V228.5V110M58.5 11.5H138.5V110H175.5V219" stroke="#92FFBE" stroke-opacity="0.3" stroke-width="4" stroke-linecap="round" stroke-linejoin="round"/>
<path d="M324 13.3333C324 22.6667 312 30.6667 312 30.6667C312 30.6667 300 22.6667 300 13.3333C300 10.1507 301.264 7.09848 303.515 4.84805C305.765 2.59761 308.817 1.33333 312 1.33333C315.183 1.33333 318.235 2.59761 320.485 4.84805C322.736 7.09848 324 10.1507 324 13.3333Z" stroke="#FF9900" stroke-width="2" stroke-linecap="round" stroke-linejoin="round"/>
<path d="M312 17.3333C314.209 17.3333 316 15.5425 316 13.3333C316 11.1242 314.209 9.33333 312 9.33333C309.791 9.33333 308 11.1242 308 13.3333C308 15.5425 309.791 17.3333 312 17.3333Z" stroke="#FF9900" stroke-width="2" stroke-linecap="round" stroke-linejoin="round"/>
<path d="M127.5 105C127.5 115.5 114 124.5 114 124.5C114 124.5 100.5 115.5 100.5 105C100.5 101.42 101.922 97.9858 104.454 95.4541C106.986 92.9223 110.42 91.5 114 91.5C117.58 91.5 121.014 92.9223 123.546 95.4541C126.078 97.9858 127.5 101.42 127.5 105Z" stroke="#FFADAD" stroke-width="2" stroke-linecap="round" stroke-linejoin="round"/>
<path d="M114 109.5C116.485 109.5 118.5 107.485 118.5 105C118.5 102.515 116.485 100.5 114 100.5C111.515 100.5 109.5 102.515 109.5 105C109.5 107.485 111.515 109.5 114 109.5Z" stroke="#FFADAD" stroke-width="2" stroke-linecap="round" stroke-linejoin="round"/>
</svg>
